<svg xmlns="http://www.w3.org/2000/svg" width="20" height="20" viewBox="0 0 20 20" fill="none">
<path d="M15 11.666L15.9596 10.7065C16.3501 10.3159 16.3501 9.68277 15.9596 9.29224L15 8.33268" stroke="#28303F" stroke-width="1.5" stroke-linecap="round" stroke-linejoin="round"/>
<path d="M15.8333 10L10.8333 10M3.33333 14.3886V6.05527M13.3333 14.3886C13.3333 15.3091 12.5871 16.0553 11.6667 16.0553H8.33333M13.3333 6.05527C13.3333 5.1348 12.5871 4.38861 11.6667 4.38861H8.33333M4.07549 16.5501L5.74216 17.6612C6.84975 18.3996 8.33333 17.6056 8.33333 16.2744V4.16947C8.33333 2.83831 6.84975 2.04432 5.74216 2.78272L4.07549 3.89383C3.61183 4.20294 3.33333 4.72333 3.33333 5.28058V15.1633C3.33333 15.7206 3.61183 16.2409 4.07549 16.5501Z" stroke="#28303F" stroke-width="1.5" stroke-linecap="round"/>
</svg>